<?xml version="1.0" encoding="UTF-8"?>
<svg xmlns="http://www.w3.org/2000/svg" xmlns:xlink="http://www.w3.org/1999/xlink" width="600pt" height="599.999999pt" viewBox="0 0 600 599.999999" version="1.2">
<defs>
<clipPath id="clip1">
  <path d="M 49.445312 60 L 544.445312 60 L 544.445312 476 L 49.445312 476 Z M 49.445312 60 "/>
</clipPath>
<clipPath id="clip2">
  <path d="M 334 217 L 410 217 L 410 293 L 334 293 Z M 334 217 "/>
</clipPath>
<clipPath id="clip3">
  <path d="M 372.160156 194.183594 L 433.148438 255.171875 L 372.160156 316.160156 L 311.171875 255.171875 Z M 372.160156 194.183594 "/>
</clipPath>
<clipPath id="clip4">
  <path d="M 372.160156 194.183594 L 433.148438 255.171875 L 372.160156 316.160156 L 311.171875 255.171875 Z M 372.160156 194.183594 "/>
</clipPath>
</defs>
<g id="surface1">
<g clip-path="url(#clip1)" clip-rule="nonzero">
<path style=" stroke:none;fill-rule:nonzero;fill:rgb(0%,0%,0%);fill-opacity:1;" d="M 411.953125 372.097656 C 393.722656 392.296875 364.195312 397.09375 339.734375 385.128906 C 327.765625 379.289062 312.972656 375.847656 296.945312 375.847656 C 280.914062 375.847656 266.121094 379.289062 254.171875 385.128906 C 229.5 397.1875 199.839844 392.105469 181.527344 371.65625 C 154.652344 341.65625 139.296875 301.121094 142.46875 256.992188 C 147.921875 180.871094 209.566406 119.328125 285.710938 113.972656 C 376.335938 107.574219 451.84375 179.191406 451.84375 268.414062 C 451.84375 308.292969 436.742188 344.652344 411.953125 372.097656 Z M 524.78125 213.886719 L 497.207031 213.886719 C 473.230469 125.761719 392.695312 60.933594 296.945312 60.933594 C 201.191406 60.933594 120.660156 125.761719 96.683594 213.886719 L 85.777344 213.886719 L 85.777344 134.09375 C 96.507812 131.71875 104.550781 122.148438 104.550781 110.6875 C 104.550781 97.425781 93.800781 86.699219 80.535156 86.699219 C 67.273438 86.699219 56.519531 97.425781 56.519531 110.6875 C 56.519531 122.148438 64.566406 131.71875 75.316406 134.09375 L 75.316406 213.886719 L 69.109375 213.886719 C 58.242188 213.886719 49.445312 222.683594 49.445312 233.527344 L 49.445312 302.957031 C 49.445312 313.800781 58.242188 322.617188 69.109375 322.617188 L 96.605469 322.617188 C 120.445312 410.894531 201.078125 475.878906 296.945312 475.878906 C 392.8125 475.878906 473.441406 410.894531 497.285156 322.617188 L 524.78125 322.617188 C 535.648438 322.617188 544.445312 313.800781 544.445312 302.957031 L 544.445312 233.527344 C 544.445312 222.683594 535.648438 213.886719 524.78125 213.886719 "/>
</g>
<path style=" stroke:none;fill-rule:nonzero;fill:rgb(0%,0%,0%);fill-opacity:1;" d="M 429.667969 463.296875 C 391.824219 489.140625 346.117188 504.273438 296.945312 504.273438 C 247.464844 504.273438 201.523438 488.945312 163.546875 462.8125 L 143.011719 499.519531 C 133.089844 517.246094 145.910156 539.066406 166.214844 539.066406 L 427.675781 539.066406 C 447.976562 539.066406 460.796875 517.246094 450.878906 499.519531 L 429.667969 463.296875 "/>
<path style=" stroke:none;fill-rule:nonzero;fill:rgb(100%,36.079407%,36.079407%);fill-opacity:1;" d="M 270.59375 216.667969 L 223.644531 298.007812 L 176.695312 216.667969 Z M 270.59375 216.667969 "/>
<g clip-path="url(#clip2)" clip-rule="nonzero">
<g clip-path="url(#clip3)" clip-rule="nonzero">
<g clip-path="url(#clip4)" clip-rule="nonzero">
<path style=" stroke:none;fill-rule:nonzero;fill:rgb(0%,0%,0%);fill-opacity:1;" d="M 408.71875 274.722656 C 401.390625 267.390625 394.0625 260.0625 386.730469 252.730469 C 386.730469 254.359375 386.730469 255.984375 386.730469 257.613281 C 394.058594 250.28125 401.390625 242.953125 408.71875 235.621094 C 410.050781 234.292969 410.050781 232.074219 408.71875 230.742188 C 404.675781 226.699219 400.632812 222.65625 396.589844 218.613281 C 395.257812 217.28125 393.039062 217.28125 391.710938 218.613281 C 384.378906 225.941406 377.050781 233.273438 369.722656 240.601562 C 371.347656 240.601562 372.972656 240.601562 374.601562 240.601562 C 367.269531 233.273438 359.941406 225.941406 352.609375 218.613281 C 351.28125 217.28125 349.0625 217.28125 347.730469 218.613281 C 343.6875 222.65625 339.644531 226.699219 335.601562 230.742188 C 334.273438 232.074219 334.269531 234.292969 335.601562 235.621094 C 342.929688 242.953125 350.261719 250.28125 357.589844 257.609375 C 357.589844 255.984375 357.589844 254.359375 357.589844 252.730469 C 350.261719 260.0625 342.929688 267.390625 335.601562 274.722656 C 334.273438 276.050781 334.269531 278.269531 335.601562 279.601562 C 339.644531 283.644531 343.6875 287.6875 347.730469 291.730469 C 349.0625 293.058594 351.28125 293.058594 352.609375 291.730469 C 359.941406 284.402344 367.269531 277.070312 374.601562 269.742188 C 372.972656 269.742188 371.347656 269.742188 369.722656 269.742188 C 377.050781 277.070312 384.378906 284.402344 391.710938 291.730469 C 393.039062 293.0625 395.257812 293.058594 396.589844 291.730469 C 400.632812 287.6875 404.675781 283.644531 408.71875 279.601562 C 411.867188 276.453125 406.988281 271.574219 403.839844 274.722656 C 399.796875 278.765625 395.753906 282.808594 391.710938 286.851562 C 393.335938 286.851562 394.960938 286.851562 396.589844 286.851562 C 389.257812 279.523438 381.929688 272.191406 374.601562 264.863281 C 373.269531 263.535156 371.050781 263.535156 369.722656 264.863281 C 362.390625 272.191406 355.0625 279.523438 347.730469 286.851562 C 349.359375 286.851562 350.984375 286.851562 352.609375 286.851562 C 348.566406 282.808594 344.523438 278.765625 340.480469 274.722656 C 340.480469 276.347656 340.480469 277.972656 340.480469 279.601562 C 347.808594 272.269531 355.140625 264.941406 362.46875 257.613281 C 363.796875 256.28125 363.800781 254.0625 362.46875 252.730469 C 355.140625 245.402344 347.808594 238.074219 340.480469 230.742188 C 340.480469 232.371094 340.480469 233.996094 340.480469 235.621094 C 344.523438 231.578125 348.566406 227.535156 352.609375 223.492188 C 350.984375 223.492188 349.359375 223.492188 347.730469 223.492188 C 355.0625 230.820312 362.390625 238.152344 369.71875 245.480469 C 371.050781 246.8125 373.269531 246.8125 374.601562 245.480469 C 381.929688 238.152344 389.257812 230.820312 396.589844 223.492188 C 394.960938 223.492188 393.335938 223.492188 391.710938 223.492188 C 395.753906 227.535156 399.796875 231.578125 403.839844 235.621094 C 403.839844 233.996094 403.839844 232.371094 403.839844 230.742188 C 396.511719 238.074219 389.179688 245.402344 381.851562 252.734375 C 380.523438 254.0625 380.523438 256.28125 381.851562 257.613281 C 389.179688 264.941406 396.511719 272.269531 403.839844 279.601562 C 406.988281 282.746094 411.867188 277.867188 408.71875 274.722656 Z M 408.71875 274.722656 "/>
</g>
</g>
</g>
</g>
</svg>
